<svg height="479pt" viewBox="1 -7 479.99848 479" width="479pt" xmlns="http://www.w3.org/2000/svg"><path d="m430.855469 276.378906c-1.445313-2.40625-4.050781-3.878906-6.855469-3.878906h-368c-2.789062.03125-5.355469 1.535156-6.746094 3.953125l-.113281-.074219-48 80c-1.484375 2.472656-1.523437 5.550782-.105469 8.058594 1.421875 2.507812 4.082032 4.0625 6.964844 4.0625h40v88c0 4.417969 3.582031 8 8 8h368c4.417969 0 8-3.582031 8-8v-88h40c2.882812 0 5.539062-1.554688 6.960938-4.0625 1.417968-2.507812 1.378906-5.585938-.105469-8.058594zm-408.730469 76.121094 25.875-43.121094v43.121094zm153.875 96h-112v-160h112zm240 0h-224v-139.121094l33.140625 55.242188c1.449219 2.40625 4.050781 3.878906 6.859375 3.878906h184zm-179.472656-96-38.402344-64h221.34375l38.402344 64zm0 0"/><path d="m368 416.5h32v16h-32zm0 0"/><path d="m336 416.5h16v16h-16zm0 0"/><path d="m346.847656 89.570312 13.855469-8 8 13.855469-13.855469 8zm0 0"/><path d="m368 152.5h16v16h-16zm0 0"/><path d="m361.675781 201.386719 4.140625-15.457031 15.457032 4.144531-4.144532 15.457031zm0 0"/><path d="m346.851562 231.429688 8-13.855469 13.855469 8-8 13.855469zm0 0"/><path d="m324.855469 256.667969 11.3125-11.3125 11.3125 11.3125-11.3125 11.3125zm0 0"/><path d="m132.515625 256.671875 11.316406-11.316406 11.3125 11.316406-11.3125 11.3125zm0 0"/><path d="m111.296875 225.566406 13.859375-8 8 13.859375-13.859375 7.996094zm0 0"/><path d="m98.828125 190.042969 15.457031-4.140625 4.140625 15.453125-15.457031 4.144531zm0 0"/><path d="m96 152.5h16v16h-16zm0 0"/><path d="m98.875 130.988281 4.144531-15.457031 15.457031 4.144531-4.144531 15.457031zm0 0"/><path d="m111.289062 95.429688 8-13.855469 13.855469 8-8 13.855469zm0 0"/><path d="m132.515625 64.332031 11.3125-11.3125 11.3125 11.3125-11.3125 11.3125zm0 0"/><path d="m161.074219 39.796875 13.855469-8 8 13.855469-13.855469 8zm0 0"/><path d="m195.027344 23.425781 15.457031-4.144531 4.144531 15.457031-15.457031 4.144531zm0 0"/><path d="m232 16.5h16v16h-16zm0 0"/><path d="m265.398438 34.789062 4.140624-15.457031 15.457032 4.140625-4.144532 15.457032zm0 0"/><path d="m297.066406 45.644531 8-13.855469 13.855469 7.996094-8 13.859375zm0 0"/><path d="m324.851562 64.332031 11.316407-11.316406 11.3125 11.316406-11.3125 11.3125zm0 0"/><path d="m361.625 119.558594 15.453125-4.144532 4.144531 15.457032-15.457031 4.144531zm0 0"/><path d="m408 48.5h16v-16h16v-16h-16v-16h-16v16h-16v16h16zm0 0"/><path d="m32 192.5h16v-16h16v-16h-16v-16h-16v16h-16v16h16zm0 0"/><path d="m64 48.5c13.253906 0 24-10.746094 24-24s-10.746094-24-24-24c-13.257812 0-24 10.746094-24 24s10.742188 24 24 24zm0-32c4.417969 0 8 3.582031 8 8s-3.582031 8-8 8-8-3.582031-8-8 3.582031-8 8-8zm0 0"/><path d="m432 224.5c0 13.253906 10.742188 24 24 24 13.253906 0 24-10.746094 24-24s-10.746094-24-24-24c-13.257812 0-24 10.746094-24 24zm24-8c4.417969 0 8 3.582031 8 8s-3.582031 8-8 8-8-3.582031-8-8 3.582031-8 8-8zm0 0"/><path d="m186.34375 202.84375 96-96.003906 11.316406 11.3125-96.003906 96.003906zm0 0"/><path d="m272 168.5c-13.257812 0-24 10.746094-24 24s10.742188 24 24 24c13.253906 0 24-10.746094 24-24s-10.746094-24-24-24zm0 32c-4.417969 0-8-3.582031-8-8s3.582031-8 8-8 8 3.582031 8 8-3.582031 8-8 8zm0 0"/><path d="m208 152.5c13.253906 0 24-10.746094 24-24s-10.746094-24-24-24c-13.257812 0-24 10.746094-24 24s10.742188 24 24 24zm0-32c4.417969 0 8 3.582031 8 8s-3.582031 8-8 8-8-3.582031-8-8 3.582031-8 8-8zm0 0"/><path d="m240 264.5c57.4375 0 104-46.5625 104-104s-46.5625-104-104-104-104 46.5625-104 104c.066406 57.410156 46.589844 103.933594 104 104zm0-192c48.597656 0 88 39.398438 88 88s-39.402344 88-88 88c-48.601562 0-88-39.398438-88-88 .054688-48.578125 39.421875-87.945312 88-88zm0 0"/></svg>